<svg xmlns="http://www.w3.org/2000/svg" version="1.1" xmlns:xlink="http://www.w3.org/1999/xlink" xmlns:svgjs="http://svgjs.dev/svgjs" width="2000" height="1500" viewBox="0 0 2000 1500"><rect width="2000" height="1500" fill="#331e6d"></rect><g transform="matrix(0.75,0,0,0.75,249.090909090909,282.7536437246963)"><svg viewBox="0 0 396 247" data-background-color="#331e6d" preserveAspectRatio="xMidYMid meet" height="1247" width="2000" xmlns="http://www.w3.org/2000/svg" xmlns:xlink="http://www.w3.org/1999/xlink"><g id="tight-bounds" transform="matrix(1,0,0,1,0.2400000000000091,-0.09999999999999432)"><svg viewBox="0 0 395.52 247.2" height="247.2" width="395.52"><g><svg></svg></g><g><svg viewBox="0 0 395.52 247.2" height="247.2" width="395.52"><g transform="matrix(1,0,0,1,120.5145261971831,47.215199999999996)"><svg viewBox="0 0 154.49094760563378 152.7696" height="152.7696" width="154.49094760563378"><g><svg viewBox="0 0 154.49094760563378 152.7696" height="152.7696" width="154.49094760563378"><g><svg viewBox="0 0 154.49094760563378 152.7696" height="152.7696" width="154.49094760563378"><g><svg viewBox="0 0 154.49094760563378 152.7696" height="152.7696" width="154.49094760563378"><g id="textblocktransform"><svg viewBox="0 0 154.49094760563378 152.7696" height="152.7696" width="154.49094760563378" id="textblock"><g><svg viewBox="0 0 154.49094760563378 152.7696" height="152.7696" width="154.49094760563378"><g transform="matrix(1,0,0,1,0,0)"><svg width="154.49094760563378" viewBox="0.5 -35.5 35.900001525878906 35.5" height="152.7696" data-palette-color="#ffcf31"><path d="M15.8-2.55Q15.7-1.1 14.28-0.55 12.85 0 9.15 0 5.45 0 2.98-0.68 0.5-1.35 0.5-2.4L0.5-2.4Q0.5-3.6 4.95-17.73 9.4-31.85 10.05-34L10.05-34Q10.3-34.65 14.08-35.08 17.85-35.5 22.18-35.5 26.5-35.5 26.95-34L26.95-34Q36.4-2.6 36.4-2.1 36.4-1.6 35.8-1.1L35.8-1.1Q34.4 0 30.25 0L30.25 0Q21.4 0 21.2-2.1L21.2-2.1 20.85-5.35 16.05-5.35 15.8-2.55ZM17.1-14.85L19.8-14.85 19.05-23.85 17.95-23.85 17.1-14.85Z" opacity="1" transform="matrix(1,0,0,1,0,0)" fill="#ffcf31" class="undefined-text-0" data-fill-palette-color="primary" id="text-0"></path></svg></g></svg></g></svg></g></svg></g></svg></g></svg></g></svg></g><path d="M92.704 41.215L92.704 0 339.904 0 339.904 247.2 92.704 247.2 92.704 205.985 106.481 205.985 106.481 233.423 326.127 233.423 326.127 13.777 106.481 13.777 106.481 41.215Z" fill="#ffcf31" stroke="transparent" data-fill-palette-color="primary"></path></svg></g><defs></defs></svg><rect width="395.52" height="247.2" fill="none" stroke="none" visibility="hidden"></rect></g></svg></g></svg>